{
  "accessors": [
    {
      "bufferView": 2,
      "componentType": 5126,
      "count": 4826,
      "max": [
        390.71160888671875,
        176.13018798828125,
        408.2845458984375
      ],
      "min": [
        0,
        0,
        0
      ],
      "type": "VEC3"
    },
    {
      "bufferView": 2,
      "byteOffset": 57912,
      "componentType": 5126,
      "count": 4826,
      "max": [
        1,
        1,
        1
      ],
      "min": [
        -1,
        -1,
        -1
      ],
      "type": "VEC3"
    },
    {
      "bufferView": 3,
      "componentType": 5126,
      "count": 4826,
      "max": [
        0.00026258148136548698,
        1,
        1,
        1
      ],
      "min": [
        -0.00029451248701661825,
        -1,
        -1,
        1
      ],
      "type": "VEC4"
    },
    {
      "bufferView": 1,
      "componentType": 5126,
      "count": 4826,
      "max": [
        0.9979100227355957,
        0.98760402202606201
      ],
      "min": [
        0.00024900000425986946,
        0.00025000001187436283
      ],
      "type": "VEC2"
    },
    {
      "bufferView": 0,
      "componentType": 5125,
      "count": 13314,
      "max": [
        4825
      ],
      "min": [
        0
      ],
      "type": "SCALAR"
    },
    {
      "bufferView": 2,
      "byteOffset": 115824,
      "componentType": 5126,
      "count": 2244,
      "max": [
        383.72698974609375,
        165.90179443359375,
        401.11712646484375
      ],
      "min": [
        6.9845123291015625,
        7.7020263671875,
        70
      ],
      "type": "VEC3"
    },
    {
      "bufferView": 2,
      "byteOffset": 142752,
      "componentType": 5126,
      "count": 2244,
      "max": [
        3.0000001061125658e-06,
        1,
        0
      ],
      "min": [
        -3.0000001061125658e-06,
        -1,
        -1.9999999949504854e-06
      ],
      "type": "VEC3"
    },
    {
      "bufferView": 3,
      "byteOffset": 77216,
      "componentType": 5126,
      "count": 2244,
      "max": [
        1,
        0,
        1,
        1
      ],
      "min": [
        -2.745213350863196e-06,
        -1.9999999949504854e-06,
        -1,
        1
      ],
      "type": "VEC4"
    },
    {
      "bufferView": 1,
      "byteOffset": 38608,
      "componentType": 5126,
      "count": 2244,
      "max": [
        0.99668902158737183,
        0.99975001811981201
      ],
      "min": [
        0.55014300346374512,
        0.0016060000052675605
      ],
      "type": "VEC2"
    },
    {
      "bufferView": 0,
      "byteOffset": 53256,
      "componentType": 5125,
      "count": 11298,
      "max": [
        2243
      ],
      "min": [
        0
      ],
      "type": "SCALAR"
    },
    {
      "bufferView": 2,
      "byteOffset": 169680,
      "componentType": 5126,
      "count": 62,
      "max": [
        315.4315185546875,
        171.45703125,
        354.103759765625
      ],
      "min": [
        75.473587036132812,
        126.77337646484375,
        347.24703979492188
      ],
      "type": "VEC3"
    },
    {
      "bufferView": 2,
      "byteOffset": 170424,
      "componentType": 5126,
      "count": 62,
      "max": [
        1,
        1,
        1
      ],
      "min": [
        -1,
        -1,
        -1
      ],
      "type": "VEC3"
    },
    {
      "bufferView": 3,
      "byteOffset": 113120,
      "componentType": 5126,
      "count": 62,
      "max": [
        1.909819184220396e-05,
        1,
        1,
        1
      ],
      "min": [
        -2.2426909708883613e-05,
        -1,
        -1,
        1
      ],
      "type": "VEC4"
    },
    {
      "bufferView": 1,
      "byteOffset": 56560,
      "componentType": 5126,
      "count": 62,
      "max": [
        0.61695402860641479,
        0.99975001811981201
      ],
      "min": [
        0.00015399999392684549,
        0.00025000001187436283
      ],
      "type": "VEC2"
    },
    {
      "bufferView": 0,
      "byteOffset": 98448,
      "componentType": 5125,
      "count": 132,
      "max": [
        61
      ],
      "min": [
        0
      ],
      "type": "SCALAR"
    },
    {
      "bufferView": 2,
      "byteOffset": 171168,
      "componentType": 5126,
      "count": 288,
      "max": [
        307.3800048828125,
        169.0596923828125,
        60.096328735351562
      ],
      "min": [
        84.972564697265625,
        161.8011474609375,
        4.173583984375
      ],
      "type": "VEC3"
    },
    {
      "bufferView": 2,
      "byteOffset": 174624,
      "componentType": 5126,
      "count": 288,
      "max": [
        1,
        1,
        1.000000679596269e-06
      ],
      "min": [
        -1,
        -1,
        -1.0000003385357559e-06
      ],
      "type": "VEC3"
    },
    {
      "bufferView": 3,
      "byteOffset": 114112,
      "componentType": 5126,
      "count": 288,
      "max": [
        1,
        1,
        3.8466843932383199e-08,
        1
      ],
      "min": [
        -1,
        -1,
        -3.8470687968583661e-08,
        1
      ],
      "type": "VEC4"
    },
    {
      "bufferView": 1,
      "byteOffset": 57056,
      "componentType": 5126,
      "count": 288,
      "max": [
        0.99975001811981201,
        0.65226501226425171
      ],
      "min": [
        0.00025000001187436283,
        0.00016300000424962491
      ],
      "type": "VEC2"
    },
    {
      "bufferView": 0,
      "byteOffset": 98976,
      "componentType": 5125,
      "count": 768,
      "max": [
        287
      ],
      "min": [
        0
      ],
      "type": "SCALAR"
    },
    {
      "bufferView": 2,
      "byteOffset": 178080,
      "componentType": 5126,
      "count": 432,
      "max": [
        292.35110473632812,
        111.6793212890625,
        52.926425933837891
      ],
      "min": [
        98.03271484375,
        110.4052734375,
        8.97235107421875
      ],
      "type": "VEC3"
    },
    {
      "bufferView": 2,
      "byteOffset": 183264,
      "componentType": 5126,
      "count": 432,
      "max": [
        1,
        1,
        1
      ],
      "min": [
        -1,
        -1,
        -1
      ],
      "type": "VEC3"
    },
    {
      "bufferView": 3,
      "byteOffset": 118720,
      "componentType": 5126,
      "count": 432,
      "max": [
        1,
        1,
        1,
        1
      ],
      "min": [
        -1,
        -1,
        -1,
        1
      ],
      "type": "VEC4"
    },
    {
      "bufferView": 1,
      "byteOffset": 59360,
      "componentType": 5126,
      "count": 432,
      "max": [
        0.94335699081420898,
        0.99975001811981201
      ],
      "min": [
        0.00023600000713486224,
        0.00025000001187436283
      ],
      "type": "VEC2"
    },
    {
      "bufferView": 0,
      "byteOffset": 102048,
      "componentType": 5125,
      "count": 744,
      "max": [
        431
      ],
      "min": [
        0
      ],
      "type": "SCALAR"
    },
    {
      "bufferView": 2,
      "byteOffset": 188448,
      "componentType": 5126,
      "count": 1340,
      "max": [
        365.6976318359375,
        164.9140625,
        384.52365112304688
      ],
      "min": [
        25.041580200195312,
        128.8402099609375,
        72.847831726074219
      ],
      "type": "VEC3"
    },
    {
      "bufferView": 2,
      "byteOffset": 204528,
      "componentType": 5126,
      "count": 1340,
      "max": [
        1,
        1,
        1
      ],
      "min": [
        -1,
        -1,
        -1
      ],
      "type": "VEC3"
    },
    {
      "bufferView": 3,
      "byteOffset": 125632,
      "componentType": 5126,
      "count": 1340,
      "max": [
        1,
        1,
        1,
        1
      ],
      "min": [
        -1,
        -1,
        -1,
        1
      ],
      "type": "VEC4"
    },
    {
      "bufferView": 1,
      "byteOffset": 62816,
      "componentType": 5126,
      "count": 1340,
      "max": [
        0.91406399011611938,
        0.99975001811981201
      ],
      "min": [
        0.0002280000044265762,
        0.00025000001187436283
      ],
      "type": "VEC2"
    },
    {
      "bufferView": 0,
      "byteOffset": 105024,
      "componentType": 5125,
      "count": 2010,
      "max": [
        1339
      ],
      "min": [
        0
      ],
      "type": "SCALAR"
    },
    {
      "bufferView": 2,
      "byteOffset": 220608,
      "componentType": 5126,
      "count": 372,
      "max": [
        363.8333740234375,
        164.02606201171875,
        384
      ],
      "min": [
        27.343521118164062,
        103.92840576171875,
        8.8535919189453125
      ],
      "type": "VEC3"
    },
    {
      "bufferView": 2,
      "byteOffset": 225072,
      "componentType": 5126,
      "count": 372,
      "max": [
        0,
        1,
        0
      ],
      "min": [
        0,
        1,
        -1.9999999949504854e-06
      ],
      "type": "VEC3"
    },
    {
      "bufferView": 3,
      "byteOffset": 147072,
      "componentType": 5126,
      "count": 372,
      "max": [
        1,
        0,
        0,
        1
      ],
      "min": [
        0,
        -1.99999976757681e-06,
        -1,
        1
      ],
      "type": "VEC4"
    },
    {
      "bufferView": 1,
      "byteOffset": 73536,
      "componentType": 5126,
      "count": 372,
      "max": [
        0.92569100856781006,
        0.99975001811981201
      ],
      "min": [
        0.00023099999816622585,
        0.00025000001187436283
      ],
      "type": "VEC2"
    },
    {
      "bufferView": 0,
      "byteOffset": 113064,
      "componentType": 5125,
      "count": 696,
      "max": [
        371
      ],
      "min": [
        0
      ],
      "type": "SCALAR"
    }
  ],
  "asset": {
    "extras": {
      "author": "volkanongun (https://sketchfab.com/volkanongun)",
      "license": "CC-BY-4.0 (http://creativecommons.org/licenses/by/4.0/)",
      "source": "https://sketchfab.com/models/94fe67ee5aeb435d8ecfdb5bb29b9847",
      "title": "PBR Textured Building"
    },
    "generator": "Sketchfab-3.19.6",
    "version": "2.0"
  },
  "bufferViews": [
    {
      "buffer": 0,
      "byteLength": 115848,
      "byteOffset": 0,
      "name": "floatBufferViews",
      "target": 34963
    },
    {
      "buffer": 0,
      "byteLength": 76512,
      "byteOffset": 115848,
      "byteStride": 8,
      "name": "floatBufferViews",
      "target": 34962
    },
    {
      "buffer": 0,
      "byteLength": 229536,
      "byteOffset": 192360,
      "byteStride": 12,
      "name": "floatBufferViews",
      "target": 34962
    },
    {
      "buffer": 0,
      "byteLength": 153024,
      "byteOffset": 421896,
      "byteStride": 16,
      "name": "floatBufferViews",
      "target": 34962
    }
  ],
  "buffers": [
    {
      "byteLength": 574920,
      "uri": "scene.bin"
    }
  ],
  "images": [
    {
      "uri": "textures/Mat_Entrance_metallicRoughness.png"
    },
    {
      "uri": "textures/Mat_Entrance_baseColor.png"
    },
    {
      "uri": "textures/Mat_Columns_baseColor.png"
    },
    {
      "uri": "textures/Mat_Columns_metallicRoughness.png"
    },
    {
      "uri": "textures/Mat_BuildingFrame_metallicRoughness.png"
    },
    {
      "uri": "textures/Mat_BuildingFrame_baseColor.png"
    },
    {
      "uri": "textures/Mat_Frames_baseColor.png"
    },
    {
      "uri": "textures/Mat_Frames_metallicRoughness.png"
    },
    {
      "uri": "textures/Mat_Building_baseColor.png"
    },
    {
      "uri": "textures/Mat_Building_metallicRoughness.png"
    },
    {
      "uri": "textures/Mat_Windows_baseColor.png"
    },
    {
      "uri": "textures/Mat_Windows_metallicRoughness.png"
    }
  ],
  "materials": [
    {
      "doubleSided": true,
      "name": "Mat_Building",
      "occlusionTexture": {
        "index": 9,
        "strength": 1,
        "texCoord": 0
      },
      "pbrMetallicRoughness": {
        "baseColorFactor": [
          1,
          1,
          1,
          1
        ],
        "baseColorTexture": {
          "index": 8,
          "texCoord": 0
        },
        "metallicFactor": 1,
        "metallicRoughnessTexture": {
          "index": 9,
          "texCoord": 0
        },
        "roughnessFactor": 0.59999999999999998
      }
    },
    {
      "doubleSided": true,
      "emissiveFactor": [
        0,
        0,
        0
      ],
      "name": "Mat_BuildingFrame",
      "occlusionTexture": {
        "index": 4,
        "strength": 1,
        "texCoord": 0
      },
      "pbrMetallicRoughness": {
        "baseColorFactor": [
          1,
          1,
          1,
          1
        ],
        "baseColorTexture": {
          "index": 5,
          "texCoord": 0
        },
        "metallicFactor": 1,
        "metallicRoughnessTexture": {
          "index": 4,
          "texCoord": 0
        },
        "roughnessFactor": 0.59999999999999998
      }
    },
    {
      "doubleSided": true,
      "name": "Mat_Columns",
      "occlusionTexture": {
        "index": 3,
        "strength": 1,
        "texCoord": 0
      },
      "pbrMetallicRoughness": {
        "baseColorFactor": [
          1,
          1,
          1,
          1
        ],
        "baseColorTexture": {
          "index": 2,
          "texCoord": 0
        },
        "metallicFactor": 1,
        "metallicRoughnessTexture": {
          "index": 3,
          "texCoord": 0
        },
        "roughnessFactor": 0.59999999999999998
      }
    },
    {
      "doubleSided": true,
      "emissiveFactor": [
        0,
        0,
        0
      ],
      "name": "Mat_Entrance",
      "occlusionTexture": {
        "index": 0,
        "strength": 1,
        "texCoord": 0
      },
      "pbrMetallicRoughness": {
        "baseColorFactor": [
          1,
          1,
          1,
          1
        ],
        "baseColorTexture": {
          "index": 1,
          "texCoord": 0
        },
        "metallicFactor": 1,
        "metallicRoughnessTexture": {
          "index": 0,
          "texCoord": 0
        },
        "roughnessFactor": 0.59999999999999998
      }
    },
    {
      "doubleSided": true,
      "name": "Mat_Frames",
      "occlusionTexture": {
        "index": 7,
        "strength": 1,
        "texCoord": 0
      },
      "pbrMetallicRoughness": {
        "baseColorFactor": [
          1,
          1,
          1,
          1
        ],
        "baseColorTexture": {
          "index": 6,
          "texCoord": 0
        },
        "metallicFactor": 1,
        "metallicRoughnessTexture": {
          "index": 7,
          "texCoord": 0
        },
        "roughnessFactor": 0.15415396340000001
      }
    },
    {
      "doubleSided": true,
      "name": "Mat_Windows",
      "occlusionTexture": {
        "index": 11,
        "strength": 1,
        "texCoord": 0
      },
      "pbrMetallicRoughness": {
        "baseColorFactor": [
          1,
          1,
          1,
          1
        ],
        "baseColorTexture": {
          "index": 10,
          "texCoord": 0
        },
        "metallicFactor": 1,
        "metallicRoughnessTexture": {
          "index": 11,
          "texCoord": 0
        },
        "roughnessFactor": 0.1114710366
      }
    }
  ],
  "meshes": [
    {
      "primitives": [
        {
          "attributes": {
            "NORMAL": 1,
            "POSITION": 0,
            "TANGENT": 2,
            "TEXCOORD_0": 3
          },
          "indices": 4,
          "material": 0,
          "mode": 4
        }
      ]
    },
    {
      "primitives": [
        {
          "attributes": {
            "NORMAL": 6,
            "POSITION": 5,
            "TANGENT": 7,
            "TEXCOORD_0": 8
          },
          "indices": 9,
          "material": 0,
          "mode": 4
        }
      ]
    },
    {
      "primitives": [
        {
          "attributes": {
            "NORMAL": 11,
            "POSITION": 10,
            "TANGENT": 12,
            "TEXCOORD_0": 13
          },
          "indices": 14,
          "material": 1,
          "mode": 4
        }
      ]
    },
    {
      "primitives": [
        {
          "attributes": {
            "NORMAL": 16,
            "POSITION": 15,
            "TANGENT": 17,
            "TEXCOORD_0": 18
          },
          "indices": 19,
          "material": 2,
          "mode": 4
        }
      ]
    },
    {
      "primitives": [
        {
          "attributes": {
            "NORMAL": 21,
            "POSITION": 20,
            "TANGENT": 22,
            "TEXCOORD_0": 23
          },
          "indices": 24,
          "material": 3,
          "mode": 4
        }
      ]
    },
    {
      "primitives": [
        {
          "attributes": {
            "NORMAL": 26,
            "POSITION": 25,
            "TANGENT": 27,
            "TEXCOORD_0": 28
          },
          "indices": 29,
          "material": 4,
          "mode": 4
        }
      ]
    },
    {
      "primitives": [
        {
          "attributes": {
            "NORMAL": 31,
            "POSITION": 30,
            "TANGENT": 32,
            "TEXCOORD_0": 33
          },
          "indices": 34,
          "material": 5,
          "mode": 4
        }
      ]
    }
  ],
  "nodes": [
    {
      "children": [
        1
      ],
      "name": "RootNode (gltf orientation matrix)",
      "rotation": [
        -0.70710678118654746,
        -0,
        -0,
        0.70710678118654757
      ]
    },
    {
      "children": [
        2
      ],
      "name": "RootNode (model correction matrix)"
    },
    {
      "children": [
        3,
        4,
        5,
        6,
        7,
        8,
        9
      ],
      "matrix": [
        1,
        0,
        0,
        0,
        0,
        1,
        0,
        0,
        0,
        0,
        1,
        0,
        -155.17494201660156,
        -1089.879638671875,
        1.9455260038375854,
        1
      ],
      "name": "Building.Obj.cleaner.gles"
    },
    {
      "mesh": 0,
      "name": ""
    },
    {
      "mesh": 1,
      "name": ""
    },
    {
      "mesh": 2,
      "name": ""
    },
    {
      "mesh": 3,
      "name": ""
    },
    {
      "mesh": 4,
      "name": ""
    },
    {
      "mesh": 5,
      "name": ""
    },
    {
      "mesh": 6,
      "name": ""
    }
  ],
  "samplers": [
    {
      "magFilter": 9729,
      "minFilter": 9987,
      "wrapS": 10497,
      "wrapT": 10497
    }
  ],
  "scene": 0,
  "scenes": [
    {
      "name": "OSG_Scene",
      "nodes": [
        0
      ]
    }
  ],
  "textures": [
    {
      "sampler": 0,
      "source": 0
    },
    {
      "sampler": 0,
      "source": 1
    },
    {
      "sampler": 0,
      "source": 2
    },
    {
      "sampler": 0,
      "source": 3
    },
    {
      "sampler": 0,
      "source": 4
    },
    {
      "sampler": 0,
      "source": 5
    },
    {
      "sampler": 0,
      "source": 6
    },
    {
      "sampler": 0,
      "source": 7
    },
    {
      "sampler": 0,
      "source": 8
    },
    {
      "sampler": 0,
      "source": 9
    },
    {
      "sampler": 0,
      "source": 10
    },
    {
      "sampler": 0,
      "source": 11
    }
  ]
}

