{
  "accessors": [
    {
      "bufferView": 1,
      "componentType": 5126,
      "count": 2069,
      "max": [
        6.75,
        8.25,
        24.75
      ],
      "min": [
        -11.25,
        -9.75,
        -0.75
      ],
      "type": "VEC3"
    },
    {
      "bufferView": 1,
      "byteOffset": 24828,
      "componentType": 5126,
      "count": 2069,
      "max": [
        1,
        1,
        1
      ],
      "min": [
        -1,
        -1,
        -1
      ],
      "type": "VEC3"
    },
    {
      "bufferView": 0,
      "componentType": 5125,
      "count": 9096,
      "max": [
        2068
      ],
      "min": [
        0
      ],
      "type": "SCALAR"
    },
    {
      "bufferView": 1,
      "byteOffset": 49656,
      "componentType": 5126,
      "count": 846,
      "max": [
        6.75,
        8.25,
        23.25
      ],
      "min": [
        -11.25,
        -9.75,
        2.25
      ],
      "type": "VEC3"
    },
    {
      "bufferView": 1,
      "byteOffset": 59808,
      "componentType": 5126,
      "count": 846,
      "max": [
        1,
        1,
        0
      ],
      "min": [
        -1,
        -1,
        0
      ],
      "type": "VEC3"
    },
    {
      "bufferView": 0,
      "byteOffset": 36384,
      "componentType": 5125,
      "count": 2256,
      "max": [
        845
      ],
      "min": [
        0
      ],
      "type": "SCALAR"
    },
    {
      "bufferView": 1,
      "byteOffset": 69960,
      "componentType": 5126,
      "count": 24,
      "max": [
        -0.75,
        8.25,
        5.25
      ],
      "min": [
        -3.75,
        6.75,
        0.75
      ],
      "type": "VEC3"
    },
    {
      "bufferView": 1,
      "byteOffset": 70248,
      "componentType": 5126,
      "count": 24,
      "max": [
        0,
        1,
        0
      ],
      "min": [
        0,
        -1,
        0
      ],
      "type": "VEC3"
    },
    {
      "bufferView": 0,
      "byteOffset": 45408,
      "componentType": 5125,
      "count": 72,
      "max": [
        23
      ],
      "min": [
        0
      ],
      "type": "SCALAR"
    }
  ],
  "asset": {
    "extras": {
      "author": "Alex_F (https://sketchfab.com/Alex_F)",
      "license": "CC-BY-4.0 (http://creativecommons.org/licenses/by/4.0/)",
      "source": "https://sketchfab.com/3d-models/pixel-art-voxel-art-building-a610bb44f87e4d3abd711b6e8559ef98",
      "title": "Pixel Art/ Voxel Art (Building)"
    },
    "generator": "Sketchfab-6.24.0",
    "version": "2.0"
  },
  "bufferViews": [
    {
      "buffer": 0,
      "byteLength": 45696,
      "byteOffset": 0,
      "name": "floatBufferViews",
      "target": 34963
    },
    {
      "buffer": 0,
      "byteLength": 70536,
      "byteOffset": 45696,
      "byteStride": 12,
      "name": "floatBufferViews",
      "target": 34962
    }
  ],
  "buffers": [
    {
      "byteLength": 116232,
      "uri": "scene.bin"
    }
  ],
  "materials": [
    {
      "doubleSided": true,
      "emissiveFactor": [
        0,
        0,
        0
      ],
      "name": "color135_0",
      "pbrMetallicRoughness": {
        "baseColorFactor": [
          0.40000000596046448,
          0.40000000596046448,
          0.40000000596046448,
          1
        ],
        "metallicFactor": 0,
        "roughnessFactor": 0.59999999999999998
      }
    },
    {
      "alphaMode": "BLEND",
      "doubleSided": true,
      "emissiveFactor": [
        0,
        0,
        0
      ],
      "name": "color135_1",
      "pbrMetallicRoughness": {
        "baseColorFactor": [
          1,
          1,
          0,
          0.34999999999999998
        ],
        "metallicFactor": 0,
        "roughnessFactor": 0.59999999999999998
      }
    },
    {
      "alphaMode": "BLEND",
      "doubleSided": true,
      "emissiveFactor": [
        0,
        0,
        0
      ],
      "name": "color135_2",
      "pbrMetallicRoughness": {
        "baseColorFactor": [
          0,
          0.49803900718688965,
          1,
          0.44
        ],
        "metallicFactor": 0,
        "roughnessFactor": 0.59999999999999998
      }
    }
  ],
  "meshes": [
    {
      "primitives": [
        {
          "attributes": {
            "NORMAL": 1,
            "POSITION": 0
          },
          "indices": 2,
          "material": 0,
          "mode": 4
        }
      ]
    },
    {
      "primitives": [
        {
          "attributes": {
            "NORMAL": 4,
            "POSITION": 3
          },
          "indices": 5,
          "material": 1,
          "mode": 4
        }
      ]
    },
    {
      "primitives": [
        {
          "attributes": {
            "NORMAL": 7,
            "POSITION": 6
          },
          "indices": 8,
          "material": 2,
          "mode": 4
        }
      ]
    }
  ],
  "nodes": [
    {
      "children": [
        1
      ],
      "name": "RootNode (gltf orientation matrix)",
      "rotation": [
        -0.70710678118654746,
        -0,
        -0,
        0.70710678118654757
      ]
    },
    {
      "children": [
        2
      ],
      "matrix": [
        -0.99997407197952271,
        -0.0072010792791843414,
        0,
        0,
        0.0072010792791843414,
        -0.99997407197952271,
        0,
        0,
        0,
        0,
        1,
        0,
        -4.4947333335876465,
        -1.516356348991394,
        0,
        1
      ],
      "name": "RootNode (model correction matrix)"
    },
    {
      "children": [
        3,
        4,
        5
      ],
      "name": "Building.obj.cleaner.gles"
    },
    {
      "mesh": 0,
      "name": ""
    },
    {
      "mesh": 1,
      "name": ""
    },
    {
      "mesh": 2,
      "name": ""
    }
  ],
  "scene": 0,
  "scenes": [
    {
      "name": "OSG_Scene",
      "nodes": [
        0
      ]
    }
  ]
}

